<svg width="60" height="60" viewBox="0 0 60 60" fill="none" xmlns="http://www.w3.org/2000/svg">
<path d="M32.4 23.8999C32.4 21.1399 30.16 18.8999 27.4 18.8999H17.4V26.3999H32.4V23.8999Z" fill="#276CE5"/>
<path d="M54.9001 23.8999H47.4001C46.0201 23.8999 44.9001 25.0199 44.9001 26.3999V28.8999H14.9V13.8999C14.9 12.5199 13.78 11.3999 12.4 11.3999H4.90003C3.52003 11.3999 2.40002 12.5199 2.40002 13.8999V46.3999C2.40002 47.7799 3.52003 48.8999 4.90003 48.8999H12.4C13.78 48.8999 14.9 47.7799 14.9 46.3999V43.8999H44.9001V46.3999C44.9001 47.7799 46.0201 48.8999 47.4001 48.8999H54.9001C56.2801 48.8999 57.4001 47.7799 57.4001 46.3999V26.3999C57.4001 25.0199 56.2801 23.8999 54.9001 23.8999ZM52.4001 43.8999H49.9001V41.3999C49.9001 40.0199 48.7801 38.8999 47.4001 38.8999H12.4C11.02 38.8999 9.90003 40.0199 9.90003 41.3999V43.8999H7.40003V16.3999H9.90003V31.3999C9.90003 32.7799 11.02 33.8999 12.4 33.8999H47.4001C48.7801 33.8999 49.9001 32.7799 49.9001 31.3999V28.8999H52.4001V43.8999Z" fill="#276CE5"/>
</svg>
