<svg width="54" height="54" viewBox="0 0 54 54" fill="none" xmlns="http://www.w3.org/2000/svg">
<path d="M9.40217 49C9.40217 47.4556 9.68157 45.9794 10.1722 44.6H7.93697C3.88677 44.6 0.602173 47.1498 0.602173 51.2V53.4H9.40217V49Z" fill="#276CE5"/>
<path d="M17.3046 36.9198C17.3046 36.9132 17.3068 36.9066 17.3068 36.9C17.3068 33.8618 14.8428 31.4 11.8046 31.4C8.76858 31.4 6.30678 33.8618 6.30678 36.9C6.30678 39.7402 8.46498 42.048 11.2238 42.3428C12.6274 39.9536 14.7526 38.044 17.3046 36.9198Z" fill="#276CE5"/>
<path d="M42.6046 31.4C39.5686 31.4 37.1068 33.8618 37.1068 36.9C37.1068 36.977 37.1266 37.0496 37.1288 37.1266C39.5048 38.275 41.4804 40.1098 42.8048 42.3824C45.7484 42.2746 48.1068 39.87 48.1068 36.9022C48.1068 33.8618 45.6428 31.4 42.6046 31.4Z" fill="#276CE5"/>
<path d="M46.0674 44.6H43.8322C44.3228 45.9794 44.6022 47.4556 44.6022 49V53.4H53.4022V51.2C53.4022 47.1498 50.1176 44.6 46.0674 44.6Z" fill="#276CE5"/>
<path d="M13.8022 53.3999H40.2022V48.9999C40.2022 44.7847 37.2344 41.2713 33.2788 40.4111C31.4946 41.6563 29.3364 42.3999 27.0022 42.3999C24.668 42.3999 22.5076 41.6563 20.7256 40.4111C16.77 41.2713 13.8022 44.7847 13.8022 48.9999V53.3999Z" fill="#276CE5"/>
<path d="M27.0022 38C30.6473 38 33.6022 35.0451 33.6022 31.4C33.6022 27.7549 30.6473 24.8 27.0022 24.8C23.3571 24.8 20.4022 27.7549 20.4022 31.4C20.4022 35.0451 23.3571 38 27.0022 38Z" fill="#276CE5"/>
<path d="M38.0022 0.599976H16.0022C13.5712 0.599976 11.6022 2.57118 11.6022 4.99998V29.2L18.2022 22.6H38.0022C40.4332 22.6 42.4022 20.6288 42.4022 18.2V4.99998C42.4022 2.57118 40.4332 0.599976 38.0022 0.599976ZM35.8022 18.2H18.2022V13.8H35.8022V18.2ZM35.8022 9.39998H18.2022V4.99998H35.8022V9.39998Z" fill="#276CE5"/>
</svg>
