<svg width="54" height="34" viewBox="0 0 54 34" fill="none" xmlns="http://www.w3.org/2000/svg">
<path fill-rule="evenodd" clip-rule="evenodd" d="M26.3121 7.97313C26.3121 12.2743 22.8172 15.7463 18.4551 15.7463C14.093 15.7463 10.5718 12.2743 10.5718 7.97313C10.5718 3.67197 14.093 0.199951 18.4551 0.199951C22.8172 0.199951 26.3121 3.67197 26.3121 7.97313ZM44.8566 10.6525C44.8566 14.3383 41.8616 17.3136 38.1236 17.3136C34.3856 17.3136 31.3681 14.3383 31.3681 10.6525C31.3681 6.96667 34.3856 3.99136 38.1236 3.99136C41.8616 3.99136 44.8566 6.96667 44.8566 10.6525ZM0.751577 32.7875L0.751623 32.7872C1.86157 26.6583 2.79836 21.4854 8.084 19.5141C11.3119 18.3103 16.7108 18.9276 22.8409 19.6285L22.8409 19.6285C27.2015 20.1271 31.9321 20.668 36.5144 20.6258C40.7841 20.5865 43.7784 20.13 45.8601 19.8125C49.1533 19.3104 50.1624 19.1566 50.3234 21.5539C50.5863 25.4666 48.0478 27.188 42.2811 27.6737C36.5144 28.1594 27.9966 28.1594 27.9966 28.1594L27.3617 33.6221H7.09437C6.89985 33.6221 7.10842 32.5157 7.29983 31.5004C7.46212 30.6394 7.61208 29.844 7.49349 29.844C7.06341 29.844 6.52884 31.0252 6.05751 32.0667C5.6859 32.8878 5.3536 33.6221 5.14281 33.6221C4.18237 33.6221 3.27902 33.6248 2.53473 33.6271H2.53402C1.38014 33.6306 0.608749 33.6329 0.599976 33.6221C0.651138 33.3421 0.701534 33.0638 0.751577 32.7875ZM53.4 33.6399H30.4724V30.9696C50.7565 30.7512 51.5911 26.1135 51.5911 26.1135L53.4 33.6399Z" fill="#276CE5"/>
</svg>
