<svg width="34" height="34" viewBox="0 0 34 34" fill="none" xmlns="http://www.w3.org/2000/svg">
<path d="M21.6364 0H7.72727C6.44455 0 5.34727 0.85 4.88364 2.074L0.216364 14.059C0.0772727 14.45 0 14.858 0 15.3V18.7C0 20.57 1.39091 22.1 3.09091 22.1H12.8427L11.3745 29.869L11.3282 30.413C11.3282 31.11 11.5909 31.756 12.0082 32.215L13.6464 34L23.8309 22.797C24.3873 22.185 24.7273 21.335 24.7273 20.4V3.4C24.7273 1.53 23.3364 0 21.6364 0ZM21.6364 20.4L14.9291 27.778L17 18.7H3.09091V15.3L7.72727 3.4H21.6364V20.4ZM27.8182 0H34V20.4H27.8182V0Z" fill="#276CE5"/>
</svg>
