<svg width="50" height="51" viewBox="0 0 50 51" fill="none" xmlns="http://www.w3.org/2000/svg">
<path d="M49.2675 23.7325L26.7675 1.23252C25.79 0.255014 24.21 0.255014 23.2325 1.23252L0.732485 23.7325C0.0174848 24.4475 -0.197515 25.5225 0.189985 26.4575C0.577485 27.3925 1.48999 28 2.49999 28H7.49999V48C7.49999 49.38 8.61999 50.5 9.99999 50.5H40C41.38 50.5 42.5 49.38 42.5 48V28H47.5C48.51 28 49.4225 27.3925 49.81 26.4575C50.1975 25.5225 49.9825 24.4475 49.2675 23.7325ZM40 23C38.62 23 37.5 24.12 37.5 25.5V45.5H12.5V25.5C12.5 24.12 11.38 23 9.99999 23H8.53499L25 6.53502L41.465 23H40Z" fill="#276CE5"/>
<path d="M22.5 18H27.5V33H22.5V18Z" fill="#276CE5"/>
<path d="M27.2098 35.7903C28.4301 37.0107 28.4301 38.9893 27.2098 40.2097C25.9894 41.4301 24.0107 41.4301 22.7903 40.2097C21.5699 38.9893 21.5699 37.0107 22.7903 35.7903C24.0107 34.5699 25.9894 34.5699 27.2098 35.7903Z" fill="#276CE5"/>
</svg>
