<svg width="65" height="65" viewBox="0 0 65 65" fill="none" xmlns="http://www.w3.org/2000/svg">
<g filter="url(#filter0_d)">
<path d="M25.7425 5C32.0425 5 37.6625 7.93501 41.3275 12.5H47.3575C43.0275 5.04 34.97 0 25.7425 0C16.51 0 8.45251 5.04 4.12 12.5H10.15C13.82 7.93501 19.44 5 25.7425 5Z" fill="#276CE5"/>
<path d="M15.0025 27.5C15.0025 31.6425 18.37 35 22.505 35C26.6375 35 30.005 31.6425 30.005 27.5V35H38.755C42.2025 35 45.005 32.1975 45.005 28.75C45.005 27.335 44.52 26.0475 43.725 25C44.5175 23.96 45.005 22.665 45.005 21.25C45.005 17.81 42.2025 15 38.755 15H30.005V22.5C30.005 18.365 26.6375 15 22.505 15C18.37 15 15.0025 18.3675 15.0025 22.5V15H10.0025V27.5C10.0025 28.8875 8.88251 30.0025 7.50001 30.0025C6.1225 30.0025 5 28.8875 5 27.5H0C0 31.6425 3.365 35 7.50001 35C11.635 35 15.0025 31.6425 15.0025 27.5ZM35.005 19.9975H38.755C39.4475 19.9975 40.005 20.565 40.005 21.25C40.005 21.94 39.4475 22.5 38.755 22.5H35.005V19.9975ZM35.005 27.5H38.755C39.4475 27.5 40.005 28.065 40.005 28.75C40.005 29.44 39.4475 30.0025 38.755 30.0025H35.005V27.5ZM20.0025 22.5C20.0025 21.12 21.1225 19.995 22.505 19.995C23.8825 19.995 25.005 21.12 25.005 22.5V27.5C25.005 28.8875 23.8825 30.0025 22.505 30.0025C21.1225 30.0025 20.0025 28.8875 20.0025 27.5V22.5Z" fill="#276CE5"/>
<path d="M51.26 27.5H53.7575C54.4475 27.5 55.01 28.065 55.01 28.75C55.01 29.44 54.4475 30.0025 53.7575 30.0025H45.005V35H53.7575C57.205 35 60.01 32.1975 60.01 28.75C60.01 25.315 57.205 22.5 53.7575 22.5H51.26C50.5675 22.5 50.005 21.94 50.005 21.25C50.005 20.565 50.5675 19.9975 51.26 19.9975H60.01V15H51.26C47.8125 15 45.005 17.81 45.005 21.25C45.005 24.695 47.8125 27.5 51.26 27.5Z" fill="#276CE5"/>
<path d="M60.0101 55.7325L45.05 40.7725C45.895 39.735 46.685 38.66 47.36 37.5H41.33C37.66 42.0675 32.0425 45 25.745 45C19.4475 45 13.825 42.07 10.1575 37.5H4.125C8.45251 44.9575 16.5125 50 25.74 50C31.7325 50 37.2125 47.85 41.5175 44.315L56.4725 59.265L60.0101 55.7325Z" fill="#276CE5"/>
</g>
<defs>
<filter id="filter0_d" x="-4" y="0" width="68.0101" height="67.265" filterUnits="userSpaceOnUse" color-interpolation-filters="sRGB">
<feFlood flood-opacity="0" result="BackgroundImageFix"/>
<feColorMatrix in="SourceAlpha" type="matrix" values="0 0 0 0 0 0 0 0 0 0 0 0 0 0 0 0 0 0 127 0"/>
<feOffset dy="4"/>
<feGaussianBlur stdDeviation="2"/>
<feColorMatrix type="matrix" values="0 0 0 0 0 0 0 0 0 0 0 0 0 0 0 0 0 0 0.25 0"/>
<feBlend mode="normal" in2="BackgroundImageFix" result="effect1_dropShadow"/>
<feBlend mode="normal" in="SourceGraphic" in2="effect1_dropShadow" result="shape"/>
</filter>
</defs>
</svg>
