<svg width="46" height="45" viewBox="0 0 46 45" fill="none" xmlns="http://www.w3.org/2000/svg">
<path d="M16.25 14.995C18.7575 13.7825 20.505 11.2325 20.505 8.26501C20.505 4.13001 17.14 0.765015 13.005 0.765015C8.87001 0.765015 5.505 4.13001 5.505 8.26501C5.505 11.235 7.25251 13.7825 9.76001 14.995C4.44501 16.435 0.505005 21.2525 0.505005 27.015V32.015C0.505005 33.3975 1.6225 34.515 3.005 34.515H5.505V42.015C5.505 43.3975 6.6225 44.515 8.005 44.515H18.005C19.3875 44.515 20.505 43.3975 20.505 42.015V34.515H23.005C24.3875 34.515 25.505 33.3975 25.505 32.015V27.015C25.505 21.2525 21.565 16.435 16.25 14.995Z" fill="#276CE5"/>
<path d="M39.89 30.5725C41.77 29.2075 43.005 27.01 43.005 24.515C43.005 20.38 39.64 17.015 35.505 17.015C31.37 17.015 28.005 20.38 28.005 24.515C28.005 27.01 29.24 29.2075 31.12 30.5725C27.81 32.2025 25.505 35.5825 25.505 39.515V42.015C25.505 43.3975 26.6225 44.515 28.005 44.515H43.005C44.3875 44.515 45.505 43.3975 45.505 42.015V39.515C45.505 35.5825 43.2025 32.2025 39.89 30.5725Z" fill="#276CE5"/>
</svg>
