<svg width="38" height="51" viewBox="0 0 38 51" fill="none" xmlns="http://www.w3.org/2000/svg">
<path d="M29.2675 1.73262C28.5525 1.01762 27.48 0.800119 26.5425 1.19012C25.61 1.57512 25 2.49012 25 3.50012V51.0002H30V36.0001H35C36.3825 36.0001 37.5 34.8826 37.5 33.5001C37.5 10.2351 29.605 2.07012 29.2675 1.73262ZM30 31.0001V14.1076C31.2175 18.1076 32.27 23.6276 32.465 31.0001H30Z" fill="#276CE5"/>
<path d="M15 16.0001C15 17.8426 13.9875 19.4376 12.5 20.3076V1.00012H7.50001V20.3076C6.0125 19.4376 5 17.8426 5 16.0001V1.00012H0V16.0001C0 20.6451 3.1975 24.5276 7.50001 25.6451V51.0002H12.5V25.6451C16.8025 24.5251 20 20.6451 20 16.0001V1.00012H15V16.0001Z" fill="#276CE5"/>
</svg>
