<svg width="60" height="60" viewBox="0 0 60 60" fill="none" xmlns="http://www.w3.org/2000/svg">
<path d="M57.1428 23.715L49.6428 11.215C49.1928 10.46 48.3778 10 47.5003 10H45.0003V7.5C45.0003 6.12 43.8803 5 42.5003 5H40.0003C38.6203 5 37.5003 6.12 37.5003 7.5V10H22.5002V7.5C22.5002 6.12 21.3802 5 20.0002 5H17.5002C16.1202 5 15.0002 6.12 15.0002 7.5V10H12.5002C11.6227 10 10.8077 10.46 10.3577 11.215L2.85773 23.715C2.39273 24.4875 2.38273 25.4475 2.82523 26.2325C3.26773 27.0175 4.10023 27.5 5.00023 27.5V57.5C5.00023 58.88 6.12023 60 7.50023 60H52.5003C53.8803 60 55.0003 58.88 55.0003 57.5V27.5C55.9003 27.5 56.7328 27.0175 57.1753 26.2325C57.6203 25.4475 57.6078 24.485 57.1428 23.715ZM13.9152 15H46.0828L50.5828 22.5H9.41523L13.9152 15ZM50.0003 55H35.0003V52.5C35.0003 49.74 32.7602 47.5 30.0002 47.5C27.2402 47.5 25.0002 49.74 25.0002 52.5V55H10.0002V27.5H50.0003V55Z" fill="#276CE5"/>
<path d="M15.0002 30H27.5002V35H15.0002V30Z" fill="#276CE5"/>
<path d="M32.5002 30H45.0003V35H32.5002V30Z" fill="#276CE5"/>
<path d="M15.0002 40H27.5002V45H15.0002V40Z" fill="#276CE5"/>
<path d="M32.5002 40H45.0003V45H32.5002V40Z" fill="#276CE5"/>
</svg>
