<svg width="50" height="58" viewBox="0 0 50 58" fill="none" xmlns="http://www.w3.org/2000/svg">
<path d="M17.5 30H32.5V35H17.5V30Z" fill="#276CE5"/>
<path d="M17.5 37.5H32.5V42.5H17.5V37.5Z" fill="#276CE5"/>
<path d="M47.5 30H40V17.5C40 16.12 38.8825 15 37.5 15H37.2475C37.4125 14.1925 37.5 13.3575 37.5 12.5C37.5 5.5925 31.905 0 25 0C18.095 0 12.5 5.5925 12.5 12.5C12.5 13.3575 12.5875 14.1925 12.7525 15H12.5C11.1175 15 10 16.12 10 17.5V30H2.5C1.1175 30 0 31.12 0 32.5V55C0 56.38 1.1175 57.5 2.5 57.5H47.5C48.8825 57.5 50 56.38 50 55V32.5C50 31.12 48.8825 30 47.5 30ZM17.5 10H22.5V5H27.5V10H32.5V15H27.5V20H22.5V15H17.5V10ZM5 35H10V52.5H5V35ZM15 20H15.0575C17.3375 23.02 20.9225 25 25 25C29.0775 25 32.66 23.02 34.9425 20H35V52.5H27.5V47.5H22.5V52.5H15V20ZM45 52.5H40V35H45V52.5Z" fill="#276CE5"/>
</svg>
