<svg width="21" height="24" viewBox="0 0 21 24" fill="none" xmlns="http://www.w3.org/2000/svg">
<path d="M17.7188 14.875H16.4062C16.2322 14.875 16.0653 14.9507 15.9422 15.0855C15.8191 15.2203 15.75 15.4031 15.75 15.5938V20.625H2.625V6.25H8.53125C8.7053 6.25 8.87222 6.17427 8.99529 6.03948C9.11836 5.90469 9.1875 5.72187 9.1875 5.53125V4.09375C9.1875 3.90313 9.11836 3.72031 8.99529 3.58552C8.87222 3.45073 8.7053 3.375 8.53125 3.375H1.96875C1.44661 3.375 0.945846 3.60218 0.576634 4.00655C0.207421 4.41093 0 4.95938 0 5.53125L0 21.3438C0 21.9156 0.207421 22.4641 0.576634 22.8685C0.945846 23.2728 1.44661 23.5 1.96875 23.5H16.4062C16.9284 23.5 17.4292 23.2728 17.7984 22.8685C18.1676 22.4641 18.375 21.9156 18.375 21.3438V15.5938C18.375 15.4031 18.3059 15.2203 18.1828 15.0855C18.0597 14.9507 17.8928 14.875 17.7188 14.875ZM20.0156 0.5H14.7656C13.8891 0.5 13.4511 1.66393 14.0684 2.3418L15.5338 3.94686L5.53711 14.8916C5.44534 14.9918 5.37252 15.1108 5.32284 15.2418C5.27316 15.3729 5.24758 15.5134 5.24758 15.6553C5.24758 15.7972 5.27316 15.9377 5.32284 16.0687C5.37252 16.1998 5.44534 16.3188 5.53711 16.419L6.46693 17.4355C6.55839 17.5361 6.66705 17.6158 6.78671 17.6702C6.90636 17.7246 7.03464 17.7526 7.1642 17.7526C7.29376 17.7526 7.42204 17.7246 7.54169 17.6702C7.66135 17.6158 7.77001 17.5361 7.86146 17.4355L17.8533 6.48898L19.3184 8.0918C19.9336 8.76562 21 8.29395 21 7.32812V1.57812C21 1.29219 20.8963 1.01796 20.7117 0.815775C20.5271 0.613588 20.2767 0.5 20.0156 0.5V0.5Z" fill="#276CE5"/>
</svg>
