<svg width="54" height="49" viewBox="0 0 54 49" fill="none" xmlns="http://www.w3.org/2000/svg">
<path fill-rule="evenodd" clip-rule="evenodd" d="M0.599976 48.4V2.84706V0H3.4235H13.8706H17.4706H20.9294H24.3882H27.9882V2.84706C27.9882 2.84706 27.953 3.14302 27.8544 3.6C27.5207 5.14744 26.4604 8.54117 23.5801 8.54117H17.4706H13.8706V3.6V2.84706H3.4235V48.4H0.599976ZM8.46837 43.6H6.24704V45.8892V46.1108V48.4H11.047H48.6H53.4V43.6V36.0216C53.4 30.7993 49.1798 26.5694 43.9694 26.5694H29.9082H25.2142H25.1082V31.3694V33.6586V36.5108V39.0884V43.6H22.8869H20.3082H15.6776H11.047H8.46837ZM29.9082 43.6V41.3108V31.3694H43.9694C46.5185 31.3694 48.6 33.4399 48.6 36.0216V43.6H29.9082ZM20.3082 39.0225C20.5619 38.8025 20.7997 38.5646 21.0198 38.3108C22.0985 37.0669 22.7506 35.4408 22.7506 33.6586C22.7506 31.5128 21.8052 29.5933 20.3082 28.2946C19.0685 27.2192 17.4505 26.5694 15.6776 26.5694C11.7639 26.5694 8.60468 29.7359 8.60468 33.6586C8.60468 35.4408 9.25679 37.0669 10.3355 38.3108C11.6311 39.8049 13.542 40.7478 15.6776 40.7478C17.4505 40.7478 19.0685 40.098 20.3082 39.0225ZM15.6776 35.9478C16.93 35.9478 17.9506 34.9407 17.9506 33.6586C17.9506 32.3765 16.93 31.3694 15.6776 31.3694C14.4253 31.3694 13.4047 32.3765 13.4047 33.6586C13.4047 34.9407 14.4253 35.9478 15.6776 35.9478ZM24.133 3.6H17.4706V4.94118H17.4765H17.504H17.5316H17.5593H17.5869H17.6147H17.6424H17.6702H17.698H17.7258H17.7537H17.7816H17.8095H17.8375H17.8655H17.8935H17.9215H17.9496H17.9777H18.0058H18.0339H18.0621H18.0903H18.1184H18.1467H18.1749H18.2031H18.2314H18.2597H18.288H18.3163H18.3446H18.3729H18.4012H18.4296H18.4579H18.4863H18.5147H18.5431H18.5714H18.5998H18.6282H18.6566H18.685H18.7134H18.7418H18.7702H18.7986H18.827H18.8554H18.8838H18.9122H18.9405H18.9689H18.9973H19.0256H19.054H19.0823H19.1106H19.139H19.1673H19.1956H19.2238H19.2521H19.2803H19.3086H19.3368H19.3649H19.3931H19.4213H19.4494H19.4775H19.5056H19.5336H19.5617H19.5897H19.6177H19.6456H19.6735H19.7014H19.7293H19.7572H19.785H19.8127H19.8405H19.8682H19.8958H19.9235H19.9511H19.9786H20.0062H20.0336H20.0611H20.0885H20.1158H20.1432H20.1704H20.1977H20.2248H20.252H20.2791H20.3061H20.3331H20.36H20.3869H20.4138H20.4406H20.4673H20.494H20.5206H20.5472H20.5737H20.6001H20.6265H20.6529H20.6792H20.7054H20.7315H20.7576H20.7837H20.8096H20.8355H20.8614H20.8871H20.9128H20.9384H20.964H20.9895H21.0149H21.0403H21.0655H21.0907H21.1159H21.1409H21.1659H21.1908H21.2156H21.2403H21.265H21.2896H21.3141H21.3385H21.3628H21.387H21.4112H21.4353H21.4593H21.4832H21.507H21.5307H21.5543H21.5779H21.6013H21.6247H21.6479H21.6711H21.6942H21.7171H21.74H21.7628H21.7855H21.808H21.8305H21.8529H21.8752H21.8974H21.9194H21.9414H21.9632H21.985H22.0066H22.0282H22.0496H22.0709H22.0921H22.1132H22.1342H22.155H22.1758H22.1964H22.2169H22.2373H22.2576H22.2778H22.2978H22.3178H22.3376H22.3572H22.3768H22.3962H22.4155H22.4347H22.4538H22.4727H22.4915H22.5102H22.5287H22.5471H22.5654H22.5836H22.6016H22.6194H22.6372H22.6548H22.6723H22.6896H22.7068H22.7238H22.7408H22.7575H22.7742H22.7906H22.807H22.8232H22.8392H22.8551H22.8709H22.8865H22.902H22.9173H22.9324H22.9474H22.9623H22.977H22.9916H23.0059H23.0202H23.0343H23.0482H23.0619H23.0756H23.089H23.1023H23.1154H23.1284H23.1412H23.1538H23.1662H23.1785H23.1907H23.2026H23.2144H23.2261H23.2375H23.2488H23.2599H23.2708H23.2816H23.2922H23.3026H23.3128H23.3229H23.3328H23.3425H23.352H23.3613H23.3705H23.3794H23.3882H23.3968H23.4053H23.4135H23.4215H23.4294H23.4371H23.4445H23.4518H23.4589H23.4658H23.4677C23.5648 4.83509 23.7233 4.61319 23.8961 4.22627C23.9872 4.02221 24.066 3.80912 24.133 3.6ZM15.0128 10.9395L12.6448 9.4017L9.54354 14.1772L11.9116 15.715L15.0128 10.9395ZM18.6706 11.3882H21.4941V17.0824H18.6706V11.3882ZM27.5199 9.4017L25.1519 10.9395L28.2531 15.715L30.6211 14.1772L27.5199 9.4017Z" fill="#276CE5"/>
</svg>
