<svg width="46" height="56" viewBox="0 0 46 56" fill="none" xmlns="http://www.w3.org/2000/svg">
<path d="M38 0.5H15.5C12.74 0.5 10.5 2.74 10.5 5.5V10.5H15.5V5.5H38C39.3775 5.5 40.5 6.6225 40.5 8.00001V43H38V40.5H33V50.5H38V48H40.5V55.5H45.5V8.00001C45.5 3.865 42.135 0.5 38 0.5Z" fill="#276CE5"/>
<path d="M14.7678 16.2322C15.7441 17.2085 15.7441 18.7915 14.7678 19.7678C13.7915 20.7441 12.2085 20.7441 11.2322 19.7678C10.2559 18.7915 10.2559 17.2085 11.2322 16.2322C12.2086 15.2559 13.7915 15.2559 14.7678 16.2322Z" fill="#276CE5"/>
<path d="M9.76777 22.4822C10.7441 23.4585 10.7441 25.0415 9.76777 26.0178C8.79145 26.9941 7.20854 26.9941 6.23224 26.0178C5.25593 25.0415 5.25593 23.4585 6.23224 22.4822C7.20855 21.5059 8.79146 21.5059 9.76777 22.4822Z" fill="#276CE5"/>
<path d="M19.7677 22.4822C20.7441 23.4585 20.7441 25.0415 19.7677 26.0178C18.7914 26.9941 17.2085 26.9941 16.2322 26.0178C15.2559 25.0415 15.2559 23.4585 16.2322 22.4822C17.2085 21.5059 18.7914 21.5059 19.7677 22.4822Z" fill="#276CE5"/>
<path d="M14.7678 28.7323C15.7441 29.7086 15.7441 31.2915 14.7678 32.2678C13.7915 33.2441 12.2085 33.2441 11.2322 32.2678C10.2559 31.2915 10.2559 29.7086 11.2322 28.7323C12.2086 27.756 13.7915 27.756 14.7678 28.7323Z" fill="#276CE5"/>
<path d="M4.76776 28.7323C5.74407 29.7086 5.74407 31.2915 4.76776 32.2678C3.79145 33.2441 2.20853 33.2441 1.23223 32.2678C0.255922 31.2915 0.255922 29.7086 1.23223 28.7323C2.20854 27.756 3.79146 27.756 4.76776 28.7323Z" fill="#276CE5"/>
<path d="M24.7677 28.7323C25.7441 29.7086 25.7441 31.2915 24.7677 32.2678C23.7914 33.2441 22.2085 33.2441 21.2322 32.2678C20.2559 31.2915 20.2559 29.7086 21.2322 28.7323C22.2085 27.756 23.7914 27.756 24.7677 28.7323Z" fill="#276CE5"/>
</svg>
