<svg width="34" height="31" viewBox="0 0 34 31" fill="none" xmlns="http://www.w3.org/2000/svg">
<path d="M0 31H6.18182V12.4H0V31ZM34 13.95C34 12.245 32.6091 10.85 30.9091 10.85H21.1573L22.6255 3.7665L22.6718 3.2705C22.6718 2.635 22.4091 2.046 21.9918 1.6275L20.3536 0L10.1845 10.2145C9.61273 10.7725 9.27273 11.5475 9.27273 12.4V27.9C9.27273 29.605 10.6636 31 12.3636 31H26.2727C27.5555 31 28.6527 30.225 29.1164 29.109L33.7836 18.1815C33.9227 17.825 34 17.453 34 17.05V13.95Z" fill="#276CE5"/>
</svg>
