<svg width="48" height="48" viewBox="0 0 48 48" fill="none" xmlns="http://www.w3.org/2000/svg">
<path d="M7.50001 48C3.365 48 0 44.635 0 40.5C0 36.365 3.365 33 7.50001 33C11.635 33 15 36.365 15 40.5C15 44.635 11.635 48 7.50001 48ZM7.50001 38C6.1225 38 5 39.1225 5 40.5C5 41.8775 6.1225 43 7.50001 43C8.87751 43 10 41.8775 10 40.5C10 39.1225 8.87751 38 7.50001 38Z" fill="#276CE5"/>
<path d="M32.5 45.5H27.5C27.5 31.71 16.285 20.5 2.5 20.5V15.5C19.0425 15.5 32.5 28.9575 32.5 45.5Z" fill="#276CE5"/>
<path d="M47.5 45.5H42.5C42.5 23.445 24.555 5.5 2.5 5.5V0.5C27.315 0.5 47.5 20.6875 47.5 45.5Z" fill="#276CE5"/>
</svg>
