<svg width="50" height="50" viewBox="0 0 50 50" fill="none" xmlns="http://www.w3.org/2000/svg">
<path d="M47.5 20.0001H45V15.0001C45 12.2426 42.7575 10.0001 40 10.0001H39.045L34.735 1.38262C34.155 0.220124 32.7775 -0.302377 31.57 0.180124L7.01751 10.0001H5C2.2425 10.0001 0 12.2426 0 15.0001V45.0002C0 47.7577 2.2425 50.0002 5 50.0002H40C42.7575 50.0002 45 47.7577 45 45.0002V40.0002H47.5C48.88 40.0002 50 38.8802 50 37.5002V22.5001C50 21.1201 48.88 20.0001 47.5 20.0001ZM31.2925 5.67513L33.455 10.0001H20.4825L31.2925 5.67513ZM39.9925 45.0002H5V15.0001H40V20.0001H32.5C31.8375 20.0001 31.2 20.2651 30.7325 20.7351L23.2325 28.2351C22.255 29.2101 22.255 30.7901 23.2325 31.7701L30.7325 39.2702C31.2 39.7352 31.8375 40.0002 32.5 40.0002H39.995L39.9925 45.0002ZM45 35.0002H33.535L28.535 30.0001L33.535 25.0001H45V35.0002Z" fill="#276CE5"/>
<path d="M36.7678 28.2324C37.7441 29.2087 37.7441 30.7916 36.7678 31.7679C35.7915 32.7442 34.2085 32.7442 33.2322 31.7679C32.2559 30.7916 32.2559 29.2087 33.2322 28.2324C34.2086 27.2561 35.7915 27.2561 36.7678 28.2324Z" fill="#276CE5"/>
</svg>
